<svg xmlns="http://www.w3.org/2000/svg" xmlns:xlink="http://www.w3.org/1999/xlink" width="821" height="452" viewbox="0 0 821 452"><path transform="translate(-54 -345.66765774393855) scale(1) translate(129 571.291992319269) rotate(0)" d="M 80 0 L 254.26628869746574 0" fill="none" stroke="#848484" stroke-width="3"></path><polygon transform="translate(-54 -345.66765774393855) scale(1) translate(129 571.291992319269) rotate(0) translate(272.34590023877365 0) rotate(0)" points="-18.079611541307905,0 -20.088457268119896,6.696152422706632 0,0 -20.088457268119896,-6.696152422706632" fill="undefined" stroke="none" stroke-width="3"></polygon><rect transform="translate(-54 -345.66765774393855) scale(1) translate(296.13314434873286 571.291992319269) rotate(0) translate(0 -34) translate(0 0) translate(-26.589599609375 0)" x="0" y="0" width="53.17919921875" height="31" rx="5" ry="5" fill="#ffffff" stroke="none"></rect><text xml:space="preserve" transform="translate(-54 -345.66765774393855) scale(1) translate(296.13314434873286 571.291992319269) rotate(0) translate(0 -34) translate(0 0) translate(-26.589599609375 0)" x="5" y="21.349853515625" font-family="sans-serif" font-size="21" font-weight="normal" text-anchor="left" fill="#848484">HAS</text><path transform="translate(-54 -345.66765774393855) scale(1) translate(481.34590023877365 571.291992319269) rotate(-25.30837180565492)" d="M 80 0 L 254.26628869746568 0" fill="none" stroke="#848484" stroke-width="3"></path><polygon transform="translate(-54 -345.66765774393855) scale(1) translate(481.34590023877365 571.291992319269) rotate(-25.30837180565492) translate(272.3459002387736 0) rotate(0)" points="-18.079611541307905,0 -20.088457268119896,6.696152422706632 0,0 -20.088457268119896,-6.696152422706632" fill="undefined" stroke="none" stroke-width="3"></polygon><rect transform="translate(-54 -345.66765774393855) scale(1) translate(632.4376214996927 499.84425123316385) rotate(-25.30837180565492) translate(0 -34) translate(0 0) translate(-26.589599609375 0)" x="0" y="0" width="53.17919921875" height="31" rx="5" ry="5" fill="#ffffff" stroke="none"></rect><text xml:space="preserve" transform="translate(-54 -345.66765774393855) scale(1) translate(632.4376214996927 499.84425123316385) rotate(-25.30837180565492) translate(0 -34) translate(0 0) translate(-26.589599609375 0)" x="5" y="21.349853515625" font-family="sans-serif" font-size="21" font-weight="normal" text-anchor="left" fill="#848484">HAS</text><path transform="translate(-54 -345.66765774393855) scale(1) translate(481.34590023877365 571.291992319269) rotate(25.30837180565494)" d="M 80 0 L 254.26628869746574 0" fill="none" stroke="#848484" stroke-width="3"></path><polygon transform="translate(-54 -345.66765774393855) scale(1) translate(481.34590023877365 571.291992319269) rotate(25.30837180565494) translate(272.34590023877365 0) rotate(0)" points="-18.079611541307905,0 -20.088457268119896,6.696152422706632 0,0 -20.088457268119896,-6.696152422706632" fill="undefined" stroke="none" stroke-width="3"></polygon><rect transform="translate(-54 -345.66765774393855) scale(1) translate(632.4376214996927 642.7397334053742) rotate(25.30837180565494) translate(0 -34) translate(0 0) translate(-26.589599609375 0)" x="0" y="0" width="53.17919921875" height="31" rx="5" ry="5" fill="#ffffff" stroke="none"></rect><text xml:space="preserve" transform="translate(-54 -345.66765774393855) scale(1) translate(632.4376214996927 642.7397334053742) rotate(25.30837180565494) translate(0 -34) translate(0 0) translate(-26.589599609375 0)" x="5" y="21.349853515625" font-family="sans-serif" font-size="21" font-weight="normal" text-anchor="left" fill="#848484">HAS</text><path transform="translate(-54 -345.66765774393855) scale(1) translate(799.873674928534 420.66765774393855) rotate(90)" d="M 80 0 L 203.16905760935302 0" fill="none" stroke="#848484" stroke-width="3"></path><polygon transform="translate(-54 -345.66765774393855) scale(1) translate(799.873674928534 420.66765774393855) rotate(90) translate(221.24866915066093 0) rotate(0)" points="-18.079611541307905,0 -20.088457268119896,6.696152422706632 0,0 -20.088457268119896,-6.696152422706632" fill="undefined" stroke="none" stroke-width="3"></polygon><rect transform="translate(-54 -345.66765774393855) scale(1) translate(799.873674928534 562.2521865486151) rotate(270) translate(0 -34) translate(0 0) translate(-52.46533203125 0)" x="0" y="0" width="104.9306640625" height="31" rx="5" ry="5" fill="#ffffff" stroke="none"></rect><text xml:space="preserve" transform="translate(-54 -345.66765774393855) scale(1) translate(799.873674928534 562.2521865486151) rotate(270) translate(0 -34) translate(0 0) translate(-52.46533203125 0)" x="5" y="21.349853515625" font-family="sans-serif" font-size="21" font-weight="normal" text-anchor="left" fill="#848484">PART_OF</text><circle transform="translate(-54 -345.66765774393855) scale(1)" cx="129" cy="571.291992319269" r="75" fill="#203443" stroke="none" strokewidth="0"></circle><text xml:space="preserve" transform="translate(-54 -345.66765774393855) scale(1) translate(129 571.291992319269) scale(1) translate(0 0) translate(0 0)" x="0" y="5.5712890625" font-family="sans-serif" font-size="20" font-weight="normal" text-anchor="middle" fill="#ffffff">User</text><circle transform="translate(-54 -345.66765774393855) scale(1)" cx="481.34590023877365" cy="571.291992319269" r="75" fill="#203443" stroke="none" strokewidth="0"></circle><text xml:space="preserve" transform="translate(-54 -345.66765774393855) scale(1) translate(481.34590023877365 571.291992319269) scale(1) translate(0 0) translate(0 0)" x="0" y="5.5712890625" font-family="sans-serif" font-size="20" font-weight="normal" text-anchor="middle" fill="#ffffff">Role</text><circle transform="translate(-54 -345.66765774393855) scale(1)" cx="799.873674928534" cy="420.66765774393855" r="75" fill="#203443" stroke="none" strokewidth="0"></circle><text xml:space="preserve" transform="translate(-54 -345.66765774393855) scale(1) translate(799.873674928534 420.66765774393855) scale(1) translate(0 0) translate(0 0)" x="0" y="5.5712890625" font-family="sans-serif" font-size="20" font-weight="normal" text-anchor="middle" fill="#ffffff">Policy</text><circle transform="translate(-54 -345.66765774393855) scale(1)" cx="799.873674928534" cy="721.9163268945995" r="75" fill="#203443" stroke="none" strokewidth="0"></circle><text xml:space="preserve" transform="translate(-54 -345.66765774393855) scale(1) translate(799.873674928534 721.9163268945995) scale(1) translate(0 0) translate(0 0)" x="0" y="-6.4287109375" font-family="sans-serif" font-size="20" font-weight="normal" text-anchor="middle" fill="#ffffff">Policy</text><text xml:space="preserve" transform="translate(-54 -345.66765774393855) scale(1) translate(799.873674928534 721.9163268945995) scale(1) translate(0 0) translate(0 0)" x="0" y="17.5712890625" font-family="sans-serif" font-size="20" font-weight="normal" text-anchor="middle" fill="#ffffff">Collection</text></svg>