<svg xmlns="http://www.w3.org/2000/svg" xmlns:xlink="http://www.w3.org/1999/xlink" width="574" height="406" viewbox="0 0 574 406"><path transform="translate(75 10) scale(1) translate(0 321) rotate(-16.798371781305296)" d="M 80 0 L 344.8199256000172 0" fill="none" stroke="#848484" stroke-width="3"></path><polygon transform="translate(75 10) scale(1) translate(0 321) rotate(-16.798371781305296) translate(362.8995371413251 0) rotate(0)" points="-18.079611541307905,0 -20.088457268119896,6.696152422706632 0,0 -20.088457268119896,-6.696152422706632" fill="undefined" stroke="none" stroke-width="3"></polygon><rect transform="translate(75 10) scale(1) translate(203.34594343562333 259.612545377925) rotate(-16.798371781305296) translate(0 -34) translate(0 0) translate(-76.003173828125 0)" x="0" y="0" width="152.00634765625" height="31" rx="5" ry="5" fill="#ffffff" stroke="none"></rect><text xml:space="preserve" transform="translate(75 10) scale(1) translate(203.34594343562333 259.612545377925) rotate(-16.798371781305296) translate(0 -34) translate(0 0) translate(-76.003173828125 0)" x="5" y="21.349853515625" font-family="sans-serif" font-size="21" font-weight="normal" text-anchor="left" fill="#848484">BELONGS_TO</text><path transform="translate(75 10) scale(1) translate(0 65) rotate(16.798371781305296)" d="M 80 0 L 344.8199256000172 0" fill="none" stroke="#848484" stroke-width="3"></path><polygon transform="translate(75 10) scale(1) translate(0 65) rotate(16.798371781305296) translate(362.8995371413251 0) rotate(0)" points="-18.079611541307905,0 -20.088457268119896,6.696152422706632 0,0 -20.088457268119896,-6.696152422706632" fill="undefined" stroke="none" stroke-width="3"></polygon><rect transform="translate(75 10) scale(1) translate(203.34594343562333 126.38745462207498) rotate(16.798371781305296) translate(0 -34) translate(0 0) translate(-76.003173828125 0)" x="0" y="0" width="152.00634765625" height="31" rx="5" ry="5" fill="#ffffff" stroke="none"></rect><text xml:space="preserve" transform="translate(75 10) scale(1) translate(203.34594343562333 126.38745462207498) rotate(16.798371781305296) translate(0 -34) translate(0 0) translate(-76.003173828125 0)" x="5" y="21.349853515625" font-family="sans-serif" font-size="21" font-weight="normal" text-anchor="left" fill="#848484">BELONGS_TO</text><circle transform="translate(75 10) scale(1)" cx="424" cy="193" r="75" fill="#203443" stroke="none" strokewidth="0"></circle><text xml:space="preserve" transform="translate(75 10) scale(1) translate(424 193) scale(1) translate(0 0) translate(0 0)" x="0" y="5.5712890625" font-family="sans-serif" font-size="20" font-weight="normal" text-anchor="middle" fill="#ffffff">Portfolio Group</text><circle transform="translate(75 10) scale(1)" cx="0" cy="321" r="75" fill="#203443" stroke="none" strokewidth="0"></circle><text xml:space="preserve" transform="translate(75 10) scale(1) translate(0 321) scale(1) translate(0 0) translate(0 0)" x="0" y="5.5712890625" font-family="sans-serif" font-size="20" font-weight="normal" text-anchor="middle" fill="#ffffff">Portfolio Group</text><circle transform="translate(75 10) scale(1)" cx="0" cy="65" r="75" fill="#475f74" stroke="none" strokewidth="0"></circle><text xml:space="preserve" transform="translate(75 10) scale(1) translate(0 65) scale(1) translate(0 0) translate(0 0)" x="0" y="5.5712890625" font-family="sans-serif" font-size="20" font-weight="normal" text-anchor="middle" fill="#ffffff">Portfolio</text></svg>