<svg xmlns="http://www.w3.org/2000/svg" xmlns:xlink="http://www.w3.org/1999/xlink" width="693" height="212" viewbox="0 0 693 212"><path transform="translate(96 -56.996826171875) scale(1) translate(-21 193) rotate(0)" d="M 80 0 L 346.9203884586921 0" fill="none" stroke="#848484" stroke-width="3"></path><polygon transform="translate(96 -56.996826171875) scale(1) translate(-21 193) rotate(0) translate(365 0) rotate(0)" points="-18.079611541307905,0 -20.088457268119896,6.696152422706632 0,0 -20.088457268119896,-6.696152422706632" fill="undefined" stroke="none" stroke-width="3"></polygon><rect transform="translate(96 -56.996826171875) scale(1) translate(192.46019422934606 193) rotate(0) translate(0 -34) translate(0 0) translate(-76.003173828125 0)" x="0" y="0" width="152.00634765625" height="31" rx="5" ry="5" fill="#ffffff" stroke="none"></rect><text xml:space="preserve" transform="translate(96 -56.996826171875) scale(1) translate(192.46019422934606 193) rotate(0) translate(0 -34) translate(0 0) translate(-76.003173828125 0)" x="5" y="21.349853515625" font-family="sans-serif" font-size="21" font-weight="normal" text-anchor="left" fill="#848484">BELONGS_TO</text><path transform="translate(96 -56.996826171875) scale(1)" d="M 424 113 L 424 113 A 40 40 0 0 1 464 73 L 493.03980577065397 73 L 522.0796115413079 73 A 40 40 0 0 1 562.0796115413079 113 L 562.0796115413079 133 L 562.0796115413079 153 A 40 40 0 0 1 522.0796115413079 193 L 522.0796115413079 193 L 522.0796115413079 193" fill="none" stroke="#848484" stroke-width="3"></path><polygon transform="translate(96 -56.996826171875) scale(1) translate(522.0796115413079 193) rotate(180) translate(18.079611541307905 0)" points="-18.079611541307905,0 -20.088457268119896,6.696152422706632 0,0 -20.088457268119896,-6.696152422706632" fill="undefined" stroke="none" stroke-width="3"></polygon><rect transform="translate(96 -56.996826171875) scale(1) translate(562.0796115413079 133) rotate(90) translate(0 -34) translate(0 0) translate(-76.003173828125 0)" x="0" y="0" width="152.00634765625" height="31" rx="5" ry="5" fill="#ffffff" stroke="none"></rect><text xml:space="preserve" transform="translate(96 -56.996826171875) scale(1) translate(562.0796115413079 133) rotate(90) translate(0 -34) translate(0 0) translate(-76.003173828125 0)" x="5" y="21.349853515625" font-family="sans-serif" font-size="21" font-weight="normal" text-anchor="left" fill="#848484">BELONGS_TO</text><circle transform="translate(96 -56.996826171875) scale(1)" cx="424" cy="193" r="75" fill="#203443" stroke="none" strokewidth="0"></circle><text xml:space="preserve" transform="translate(96 -56.996826171875) scale(1) translate(424 193) scale(1) translate(0 0) translate(0 0)" x="0" y="5.5712890625" font-family="sans-serif" font-size="20" font-weight="normal" text-anchor="middle" fill="#ffffff">Portfolio Group</text><circle transform="translate(96 -56.996826171875) scale(1)" cx="-21" cy="193" r="75" fill="#475f74" stroke="none" strokewidth="0"></circle><text xml:space="preserve" transform="translate(96 -56.996826171875) scale(1) translate(-21 193) scale(1) translate(0 0) translate(0 0)" x="0" y="5.5712890625" font-family="sans-serif" font-size="20" font-weight="normal" text-anchor="middle" fill="#ffffff">Portfolio</text></svg>