<svg xmlns="http://www.w3.org/2000/svg" xmlns:xlink="http://www.w3.org/1999/xlink" width="982" height="649" viewbox="0 0 982 649"><path transform="translate(463.5 258) scale(1) translate(-241.50269495546468 66.5) rotate(-45.93313400952052)" d="M 80 0 L 249.1577736446081 0" fill="none" stroke="#848484" stroke-width="3"></path><polygon transform="translate(463.5 258) scale(1) translate(-241.50269495546468 66.5) rotate(-45.93313400952052) translate(267.237385185916 0) rotate(0)" points="-18.079611541307905,0 -20.088457268119896,6.696152422706632 0,0 -20.088457268119896,-6.696152422706632" fill="undefined" stroke="none" stroke-width="3"></polygon><path transform="translate(463.5 258) scale(1) translate(245.29825688536698 66.5) rotate(-134.5134656251661)" d="M 80 0 L 251.80820595309913 0" fill="none" stroke="#848484" stroke-width="3"></path><polygon transform="translate(463.5 258) scale(1) translate(245.29825688536698 66.5) rotate(-134.5134656251661) translate(269.88781749440705 0) rotate(0)" points="-18.079611541307905,0 -20.088457268119896,6.696152422706632 0,0 -20.088457268119896,-6.696152422706632" fill="undefined" stroke="none" stroke-width="3"></polygon><path transform="translate(463.5 258) scale(1) translate(93.39643348721881 316) rotate(-58.66590226932314)" d="M 80 0 L 194.0238186879213 0" fill="none" stroke="#848484" stroke-width="3"></path><polygon transform="translate(463.5 258) scale(1) translate(93.39643348721881 316) rotate(-58.66590226932314) translate(212.10343022922922 0) rotate(0)" points="-18.079611541307905,0 -20.088457268119896,6.696152422706632 0,0 -20.088457268119896,-6.696152422706632" fill="undefined" stroke="none" stroke-width="3"></polygon><path transform="translate(463.5 258) scale(1) translate(268.298256885367 316) rotate(-95.26688965620201)" d="M 80 0 L 152.47826600398102 0" fill="none" stroke="#848484" stroke-width="3"></path><polygon transform="translate(463.5 258) scale(1) translate(268.298256885367 316) rotate(-95.26688965620201) translate(170.55787754528893 0) rotate(0)" points="-18.079611541307905,0 -20.088457268119896,6.696152422706632 0,0 -20.088457268119896,-6.696152422706632" fill="undefined" stroke="none" stroke-width="3"></polygon><path transform="translate(463.5 258) scale(1) translate(443.20008028351515 316) rotate(-128.42122887645863)" d="M 80 0 L 220.3782062372981 0" fill="none" stroke="#848484" stroke-width="3"></path><polygon transform="translate(463.5 258) scale(1) translate(443.20008028351515 316) rotate(-128.42122887645863) translate(238.457817778606 0) rotate(0)" points="-18.079611541307905,0 -20.088457268119896,6.696152422706632 0,0 -20.088457268119896,-6.696152422706632" fill="undefined" stroke="none" stroke-width="3"></polygon><path transform="translate(463.5 258) scale(1) translate(-171.5517832563906 316) rotate(-105.66160402886092)" d="M 80 0 L 161.0407852774907 0" fill="none" stroke="#848484" stroke-width="3"></path><polygon transform="translate(463.5 258) scale(1) translate(-171.5517832563906 316) rotate(-105.66160402886092) translate(179.1203968187986 0) rotate(0)" points="-18.079611541307905,0 -20.088457268119896,6.696152422706632 0,0 -20.088457268119896,-6.696152422706632" fill="undefined" stroke="none" stroke-width="3"></polygon><path transform="translate(463.5 258) scale(1) translate(-388.5 316) rotate(-59.494787884863236)" d="M 80 0 L 191.5036367489828 0" fill="none" stroke="#848484" stroke-width="3"></path><polygon transform="translate(463.5 258) scale(1) translate(-388.5 316) rotate(-59.494787884863236) translate(209.58324829029073 0) rotate(0)" points="-18.079611541307905,0 -20.088457268119896,6.696152422706632 0,0 -20.088457268119896,-6.696152422706632" fill="undefined" stroke="none" stroke-width="3"></polygon><circle transform="translate(463.5 258) scale(1)" cx="0" cy="-183" r="75" fill="#203443" stroke="none" strokewidth="0"></circle><text xml:space="preserve" transform="translate(463.5 258) scale(1) translate(0 -183) scale(1) translate(0 0) translate(0 0)" x="0" y="5.5712890625" font-family="sans-serif" font-size="20" font-weight="normal" text-anchor="middle" fill="#ffffff">Global</text><circle transform="translate(463.5 258) scale(1)" cx="-241.50269495546468" cy="66.5" r="75" fill="#203443" stroke="none" strokewidth="0"></circle><text xml:space="preserve" transform="translate(463.5 258) scale(1) translate(-241.50269495546468 66.5) scale(1) translate(0 0) translate(0 0)" x="0" y="5.5712890625" font-family="sans-serif" font-size="20" font-weight="normal" text-anchor="middle" fill="#ffffff">North America</text><circle transform="translate(463.5 258) scale(1)" cx="245.29825688536698" cy="66.5" r="75" fill="#203443" stroke="none" strokewidth="0"></circle><text xml:space="preserve" transform="translate(463.5 258) scale(1) translate(245.29825688536698 66.5) scale(1) translate(0 0) translate(0 0)" x="0" y="5.5712890625" font-family="sans-serif" font-size="20" font-weight="normal" text-anchor="middle" fill="#ffffff">EMEA</text><circle transform="translate(463.5 258) scale(1)" cx="93.39643348721881" cy="316" r="75" fill="#475f74" stroke="none" strokewidth="0"></circle><text xml:space="preserve" transform="translate(463.5 258) scale(1) translate(93.39643348721881 316) scale(1) translate(0 0) translate(0 0)" x="0" y="5.5712890625" font-family="sans-serif" font-size="20" font-weight="normal" text-anchor="middle" fill="#ffffff">UK</text><circle transform="translate(463.5 258) scale(1)" cx="268.298256885367" cy="316" r="75" fill="#475f74" stroke="none" strokewidth="0"></circle><text xml:space="preserve" transform="translate(463.5 258) scale(1) translate(268.298256885367 316) scale(1) translate(0 0) translate(0 0)" x="0" y="5.5712890625" font-family="sans-serif" font-size="20" font-weight="normal" text-anchor="middle" fill="#ffffff">France</text><circle transform="translate(463.5 258) scale(1)" cx="443.20008028351515" cy="316" r="75" fill="#475f74" stroke="none" strokewidth="0"></circle><text xml:space="preserve" transform="translate(463.5 258) scale(1) translate(443.20008028351515 316) scale(1) translate(0 0) translate(0 0)" x="0" y="5.5712890625" font-family="sans-serif" font-size="20" font-weight="normal" text-anchor="middle" fill="#ffffff">Germany</text><circle transform="translate(463.5 258) scale(1)" cx="-171.5517832563906" cy="316" r="75" fill="#475f74" stroke="none" strokewidth="0"></circle><text xml:space="preserve" transform="translate(463.5 258) scale(1) translate(-171.5517832563906 316) scale(1) translate(0 0) translate(0 0)" x="0" y="5.5712890625" font-family="sans-serif" font-size="20" font-weight="normal" text-anchor="middle" fill="#ffffff">USA</text><circle transform="translate(463.5 258) scale(1)" cx="-388.5" cy="316" r="75" fill="#475f74" stroke="none" strokewidth="0"></circle><text xml:space="preserve" transform="translate(463.5 258) scale(1) translate(-388.5 316) scale(1) translate(0 0) translate(0 0)" x="0" y="5.5712890625" font-family="sans-serif" font-size="20" font-weight="normal" text-anchor="middle" fill="#ffffff">Canada</text></svg>