<svg xmlns="http://www.w3.org/2000/svg" xmlns:xlink="http://www.w3.org/1999/xlink" width="1175" height="426" viewbox="0 0 1175 426"><path transform="translate(827.9081090712973 193) scale(1) translate(-73.0968598746714 30.000000000000043) rotate(-159.69125708766288)" d="M 80 0 L 232.75210253346333 0" fill="none" stroke="#848484" stroke-width="3"></path><polygon transform="translate(827.9081090712973 193) scale(1) translate(-73.0968598746714 30.000000000000043) rotate(-159.69125708766288) translate(250.83171407477124 0) rotate(0)" points="-18.079611541307905,0 -20.088457268119896,6.696152422706632 0,0 -20.088457268119896,-6.696152422706632" fill="undefined" stroke="none" stroke-width="3"></polygon><rect transform="translate(827.9081090712973 193) scale(1) translate(-219.75194776930135 -24.274806350588243) rotate(20.30874291233712) translate(0 -34) translate(0 0) translate(-33.593017578125 0)" x="0" y="0" width="67.18603515625" height="31" rx="5" ry="5" fill="#ffffff" stroke="none"></rect><text xml:space="preserve" transform="translate(827.9081090712973 193) scale(1) translate(-219.75194776930135 -24.274806350588243) rotate(20.30874291233712) translate(0 -34) translate(0 0) translate(-33.593017578125 0)" x="5" y="21.349853515625" font-family="sans-serif" font-size="21" font-weight="normal" text-anchor="left" fill="#848484">USES</text><path transform="translate(827.9081090712973 193) scale(1) translate(-73.0968598746714 30.000000000000043) rotate(157.69325379042868)" d="M 80 0 L 237.28313440059074 0" fill="none" stroke="#848484" stroke-width="3"></path><polygon transform="translate(827.9081090712973 193) scale(1) translate(-73.0968598746714 30.000000000000043) rotate(157.69325379042868) translate(255.36274594189865 0) rotate(0)" points="-18.079611541307905,0 -20.088457268119896,6.696152422706632 0,0 -20.088457268119896,-6.696152422706632" fill="undefined" stroke="none" stroke-width="3"></polygon><rect transform="translate(827.9081090712973 193) scale(1) translate(-219.86649070009625 90.21480142900359) rotate(337.6932537904287) translate(0 -34) translate(0 0) translate(-45.661865234375 0)" x="0" y="0" width="91.32373046875" height="31" rx="5" ry="5" fill="#ffffff" stroke="none"></rect><text xml:space="preserve" transform="translate(827.9081090712973 193) scale(1) translate(-219.86649070009625 90.21480142900359) rotate(337.6932537904287) translate(0 -34) translate(0 0) translate(-45.661865234375 0)" x="5" y="21.349853515625" font-family="sans-serif" font-size="21" font-weight="normal" text-anchor="left" fill="#848484">VALUES</text><path transform="translate(827.9081090712973 193) scale(1) translate(-383.36274594189865 157.291992319269) rotate(180)" d="M 80 0 L 199.28313440059074 0" fill="none" stroke="#848484" stroke-width="3"></path><polygon transform="translate(827.9081090712973 193) scale(1) translate(-383.36274594189865 157.291992319269) rotate(180) translate(217.36274594189865 0) rotate(0)" points="-18.079611541307905,0 -20.088457268119896,6.696152422706632 0,0 -20.088457268119896,-6.696152422706632" fill="undefined" stroke="none" stroke-width="3"></polygon><rect transform="translate(827.9081090712973 193) scale(1) translate(-523.004313142194 157.29199231926904) rotate(360) translate(0 -34) translate(0 0) translate(-58.479248046875 0)" x="0" y="0" width="116.95849609375" height="31" rx="5" ry="5" fill="#ffffff" stroke="none"></rect><text xml:space="preserve" transform="translate(827.9081090712973 193) scale(1) translate(-523.004313142194 157.29199231926904) rotate(360) translate(0 -34) translate(0 0) translate(-58.479248046875 0)" x="5" y="21.349853515625" font-family="sans-serif" font-size="21" font-weight="normal" text-anchor="left" fill="#848484">CONTAINS</text><path transform="translate(827.9081090712973 193) scale(1) translate(-73.0968598746714 30.000000000000043) rotate(0)" d="M 80 0 L 246.49274021716073 0" fill="none" stroke="#848484" stroke-width="3"></path><polygon transform="translate(827.9081090712973 193) scale(1) translate(-73.0968598746714 30.000000000000043) rotate(0) translate(264.57235175846864 0) rotate(0)" points="-18.079611541307905,0 -20.088457268119896,6.696152422706632 0,0 -20.088457268119896,-6.696152422706632" fill="undefined" stroke="none" stroke-width="3"></polygon><rect transform="translate(827.9081090712973 193) scale(1) translate(90.14951023390898 30.000000000000043) rotate(0) translate(0 -34) translate(0 0) translate(-64.508544921875 0)" x="0" y="0" width="129.01708984375" height="31" rx="5" ry="5" fill="#ffffff" stroke="none"></rect><text xml:space="preserve" transform="translate(827.9081090712973 193) scale(1) translate(90.14951023390898 30.000000000000043) rotate(0) translate(0 -34) translate(0 0) translate(-64.508544921875 0)" x="5" y="21.349853515625" font-family="sans-serif" font-size="21" font-weight="normal" text-anchor="left" fill="#848484">PRODUCES</text><path transform="translate(827.9081090712973 193) scale(1) translate(-680.7254918837973 157.291992319269) rotate(-90)" d="M 80 0 L 177.2123807779611 0" fill="none" stroke="#848484" stroke-width="3"></path><polygon transform="translate(827.9081090712973 193) scale(1) translate(-680.7254918837973 157.291992319269) rotate(-90) translate(195.291992319269 0) rotate(0)" points="-18.079611541307905,0 -20.088457268119896,6.696152422706632 0,0 -20.088457268119896,-6.696152422706632" fill="undefined" stroke="none" stroke-width="3"></polygon><rect transform="translate(827.9081090712973 193) scale(1) translate(-680.7254918837973 28.68580193028845) rotate(0) translate(-3.000000000000001 -15.500000000000004) translate(0 0) translate(-144.1826171875 0)" x="0" y="0" width="144.1826171875" height="31" rx="5" ry="5" fill="#ffffff" stroke="none"></rect><text xml:space="preserve" transform="translate(827.9081090712973 193) scale(1) translate(-680.7254918837973 28.68580193028845) rotate(0) translate(-3.000000000000001 -15.500000000000004) translate(0 0) translate(-144.1826171875 0)" x="5" y="21.349853515625" font-family="sans-serif" font-size="21" font-weight="normal" text-anchor="left" fill="#848484">CONSIST_OF</text><circle transform="translate(827.9081090712973 193) scale(1)" cx="-73.0968598746714" cy="30.000000000000043" r="75" fill="#203443" stroke="none" strokewidth="0"></circle><text xml:space="preserve" transform="translate(827.9081090712973 193) scale(1) translate(-73.0968598746714 30.000000000000043) scale(1) translate(0 0) translate(0 0)" x="0" y="5.5712890625" font-family="sans-serif" font-size="20" font-weight="normal" text-anchor="middle" fill="#ffffff">Valuation</text><circle transform="translate(827.9081090712973 193) scale(1)" cx="-383.36274594189865" cy="-84.82466190052352" r="75" fill="#203443" stroke="none" strokewidth="0"></circle><text xml:space="preserve" transform="translate(827.9081090712973 193) scale(1) translate(-383.36274594189865 -84.82466190052352) scale(1) translate(0 0) translate(0 0)" x="0" y="5.5712890625" font-family="sans-serif" font-size="20" font-weight="normal" text-anchor="middle" fill="#ffffff">Recipe</text><circle transform="translate(827.9081090712973 193) scale(1)" cx="-383.36274594189865" cy="157.291992319269" r="75" fill="#203443" stroke="none" strokewidth="0"></circle><text xml:space="preserve" transform="translate(827.9081090712973 193) scale(1) translate(-383.36274594189865 157.291992319269) scale(1) translate(0 0) translate(0 0)" x="0" y="5.5712890625" font-family="sans-serif" font-size="20" font-weight="normal" text-anchor="middle" fill="#ffffff">Portfolio</text><circle transform="translate(827.9081090712973 193) scale(1)" cx="-680.7254918837973" cy="157.291992319269" r="75" fill="#203443" stroke="none" strokewidth="0"></circle><text xml:space="preserve" transform="translate(827.9081090712973 193) scale(1) translate(-680.7254918837973 157.291992319269) scale(1) translate(0 0) translate(0 0)" x="0" y="5.5712890625" font-family="sans-serif" font-size="20" font-weight="normal" text-anchor="middle" fill="#ffffff">Holdings</text><circle transform="translate(827.9081090712973 193) scale(1)" cx="271.47549188379725" cy="30.000000000000043" r="75" fill="#203443" stroke="none" strokewidth="0"></circle><text xml:space="preserve" transform="translate(827.9081090712973 193) scale(1) translate(271.47549188379725 30.000000000000043) scale(1) translate(0 0) translate(0 0)" x="0" y="5.5712890625" font-family="sans-serif" font-size="20" font-weight="normal" text-anchor="middle" fill="#ffffff">Metrics</text><circle transform="translate(827.9081090712973 193) scale(1)" cx="-680.7254918837973" cy="-118" r="75" fill="#203443" stroke="none" strokewidth="0"></circle><text xml:space="preserve" transform="translate(827.9081090712973 193) scale(1) translate(-680.7254918837973 -118) scale(1) translate(0 0) translate(0 0)" x="0" y="5.5712890625" font-family="sans-serif" font-size="20" font-weight="normal" text-anchor="middle" fill="#ffffff">Instruments</text></svg>